Coordinates
version=1
nRows=9
nColumns=36
inDegrees=yes

Units are S.I. units (second, meters, Newtons, ...)
If the header above contains a line with 'inDegrees', this indicates whether rotational values are in degrees (yes) or radians (no).

endheader
time	pelvis_tilt	pelvis_list	pelvis_rotation	pelvis_tx	pelvis_ty	pelvis_tz	hip_flexion_r	hip_adduction_r	hip_rotation_r	knee_angle_r	knee_angle_r_beta	ankle_angle_r	subtalar_angle_r	mtp_angle_r	hip_flexion_l	hip_adduction_l	hip_rotation_l	knee_angle_l	knee_angle_l_beta	ankle_angle_l	subtalar_angle_l	mtp_angle_l	lumbar_extension	lumbar_bending	lumbar_rotation	arm_flex_r	arm_add_r	arm_rot_r	elbow_flex_r	pro_sup_r	arm_flex_l	arm_add_l	arm_rot_l	elbow_flex_l	pro_sup_l
      0.66000000	     -0.97970395	      3.01642771	     -0.77008323	      0.75136240	      0.93820423	     -0.20938695	     -4.65903691	     -4.67873630	     -6.99969652	     46.40128554	      0.80985521	     -7.90865998	    -14.62654578	     -7.04805158	     21.15764287	      4.28823119	     -9.21283584	     17.40931931	      0.30384994	      1.13547129	     -9.74806467	     -7.04805158	     -2.35053451	     -5.80559484	      7.91053834	      8.37048785	     -0.72133969	    -11.82115631	     45.51673367	    106.52001933	    -14.95248173	     -0.79369533	    -38.29083962	     20.49370568	     96.31911830
      0.67000000	     -0.98088392	      3.49511351	     -0.80030751	      0.76333938	      0.93899147	     -0.21109139	     -2.53735227	     -5.74671869	     -7.20462722	     50.40032268	      0.87965157	     -9.27181469	    -16.19199747	     -7.05506658	     20.34682741	      4.86031088	     -9.65781704	     17.47355689	      0.30497110	      2.03761020	     -9.40286833	     -7.05506658	     -2.38997359	     -6.35750238	      7.23885827	      8.03922661	     -0.57491609	    -11.52213882	     44.51344702	    106.34451469	    -14.15645254	     -0.85856588	    -37.97477970	     21.05553612	     96.54123237
      0.68000000	     -0.99620952	      3.83589977	     -0.81230143	      0.77494436	      0.93980626	     -0.21256724	     -0.38306777	     -6.52844933	     -7.20479139	     54.08258565	      0.94391919	    -10.49181973	    -18.30498250	     -7.07453589	     19.62086713	      5.21912286	    -10.30544478	     17.69235225	      0.30878980	      3.30492149	     -8.32080325	     -7.07453589	     -2.48275724	     -6.76615562	      6.39257749	      7.88601683	     -0.48064407	    -10.78767338	     43.31448092	    105.92980599	    -13.35693411	     -0.99438591	    -37.40666393	     21.57712672	     97.02215436
      0.69000000	     -0.92040615	      4.26809573	     -0.84921400	      0.78642346	      0.94086048	     -0.21404705	      1.69447373	     -7.45241127	     -7.27171563	     57.55196136	      1.00447122	    -10.29556335	    -19.29819128	     -7.07968113	     18.58860459	      5.80321413	    -10.51329623	     17.43089356	      0.30422648	      4.07983909	     -8.08419034	     -7.07968113	     -2.70139103	     -7.27263063	      5.73680344	      7.52978196	     -0.31359802	    -10.70098283	     42.51048237	    105.78050369	    -12.29000249	     -1.16633578	    -37.05182241	     22.03467628	     97.19156861
      0.70000000	     -0.98331359	      4.57713549	     -0.88664875	      0.79767580	      0.94184413	     -0.21539476	      3.94965853	     -8.12925678	     -7.18924684	     60.70238513	      1.05945648	     -9.75073309	    -20.28640302	     -7.08458635	     17.72516668	      6.24393222	    -10.72692478	     17.17994333	      0.29984658	      4.79944933	     -7.72214643	     -7.08458635	     -2.74629002	     -7.63633327	      5.04155402	      7.22310736	     -0.18626979	    -10.54689132	     41.52328713	    105.62548633	    -11.24599416	     -1.37215575	    -36.54718645	     22.52921932	     97.37991866
      0.71000000	     -1.15715576	      4.75633016	     -0.93355171	      0.80883333	      0.94285357	     -0.21665193	      6.32757968	     -8.59277121	     -7.05628854	     63.48507273	      1.10802355	     -8.94256119	    -21.04369031	     -7.09017156	     16.95874552	      6.53966017	    -10.93189505	     16.86851306	      0.29441109	      5.53938576	     -7.25809507	     -7.09017156	     -2.62989559	     -7.83886615	      4.33588571	      6.92764866	     -0.10264383	    -10.31733026	     40.37999918	    105.44432325	    -10.20830178	     -1.58685122	    -35.85364900	     22.98278536	     97.59634172
      0.72000000	     -1.28553574	      4.80290581	     -0.97628087	      0.81979758	      0.94413442	     -0.21780052	      8.61090563	     -8.77947247	     -6.81993448	     65.81618390	      1.14870911	     -8.10450548	    -21.47182346	     -7.09475754	     16.13044274	      6.71684351	    -10.96590168	     16.52865249	      0.28847941	      6.20371094	     -6.85042536	     -7.09475754	     -2.60693442	     -7.89769378	      3.61740466	      6.62578097	     -0.05540170	    -10.13210610	     39.30167162	    105.27741862	     -9.08360390	     -1.83982039	    -35.15685540	     23.37887030	     97.78514237
      0.73000000	     -1.57755764	      4.68030342	     -0.98196125	      0.83081711	      0.94538579	     -0.21897521	     11.00041248	     -8.76071871	     -6.67256270	     67.75237123	      1.18250195	     -6.48834537	    -20.52300184	     -7.11349610	     15.51749877	      6.65716734	    -11.31269645	     16.27681575	      0.28408403	      7.12691729	     -5.87339408	     -7.11349610	     -2.28731429	     -7.70518539	      2.77940032	      6.39819183	     -0.13986856	     -9.35391400	     37.84220244	    104.75243775	     -8.07703516	     -2.26794453	    -32.99906800	     23.28360522	     98.23564878
      0.74000000	     -1.65683710	      4.49986230	     -1.00936415	      0.84172715	      0.94716489	     -0.22004980	     13.04795003	     -8.55138817	     -6.47655786	     69.12261734	      1.20641726	     -5.93902878	    -20.59479906	     -7.11772205	     14.50066585	      6.65146106	    -11.13525578	     15.63685846	      0.27291466	      7.61583090	     -5.65689832	     -7.11772205	     -2.30762302	     -7.47719689	      2.12557365	      5.96507167	     -0.15054044	     -9.40731175	     36.93773325	    104.57669309	     -6.78654140	     -2.46897740	    -32.48310110	     23.68984322	     98.35148902
